<?xml version="1.0" encoding="utf-8"?>
<!-- Generator: Adobe Illustrator 25.2.1, SVG Export Plug-In . SVG Version: 6.00 Build 0)  -->
<svg version="1.1" id="Layer_1" xmlns="http://www.w3.org/2000/svg" xmlns:xlink="http://www.w3.org/1999/xlink" x="0px" y="0px"
	 viewBox="0 0 512 512" style="enable-background:new 0 0 512 512;" xml:space="preserve">
<style type="text/css">
	.st0{fill:#232629;}
	.st1{fill:#C84146;}
</style>
<rect x="238.9" y="59.3" class="st0" width="34.2" height="51.3"/>
<path class="st0" d="M256,144.8c-89.7,0-162.5,72.7-162.5,162.5S166.3,469.8,256,469.8S418.5,397,418.5,307.3S345.7,144.8,256,144.8
	z M256,444.1c-75.6,0-136.8-61.3-136.8-136.8S180.4,170.5,256,170.5s136.8,61.3,136.8,136.8S331.6,444.1,256,444.1z"/>
<path class="st1" d="M255.9,401.1L255.9,401.1L255.9,401.1h0.2h0.1l0,0C256.1,401.1,255.9,401.1,255.9,401.1z"/>
<path class="st0" d="M209.9,285.4c-0.5-23.2,7.3-46.2,18-52.8c-7.3-2.2-15.3-2.9-23.5-1.5c-24.8,4.1-43.4,29.2-42.4,54.3
	c2.2,54.5,59.9,98.5,93.4,115.4C239.1,383.9,211,339.9,209.9,285.4z"/>
<path d="M393.1,155.5l15.9-23.8c5.1-7.6,3-17.9-4.6-23l-14.2-9.5c-3.7-2.5-8.1-3.3-12.4-2.5c-4.3,0.9-8.1,3.4-10.5,7.1L352,126.6
	c-21.6-11.5-45.5-19.3-70.9-22.4V67.3h17.6c9.1,0,16.6-7.4,16.6-16.6V16.6c0-9.1-7.4-16.6-16.6-16.6h-85.5
	c-9.1,0-16.6,7.4-16.6,16.6v34.2c0,9.1,7.4,16.6,16.6,16.6h17.6v36.8c-25.3,3.1-49.3,10.9-70.9,22.4l-15.2-22.8
	c-2.5-3.7-6.2-6.2-10.5-7.1s-8.8,0-12.4,2.5l-14.2,9.5c-7.6,5.1-9.7,15.4-4.6,23l15.9,23.8C77.4,193,51.3,247.2,51.3,307.3
	C51.3,420.2,143.1,512,256,512s204.7-91.8,204.7-204.7C460.7,247.1,434.6,192.9,393.1,155.5z M380.5,112.7c0,0,0.1-0.2,0.3-0.2
	c0.2,0,0.4,0,0.4,0.1l14.2,9.5c0,0,0.2,0.1,0.2,0.3c0,0.2,0,0.4-0.1,0.4l-14.9,22.3c-4.8-3.7-9.7-7.2-14.9-10.5L380.5,112.7z
	 M212.7,50.8V16.6c0-0.3,0.2-0.5,0.5-0.5h85.5c0.3,0,0.5,0.2,0.5,0.5v34.2c0,0.3-0.2,0.5-0.5,0.5h-85.5
	C212.9,51.3,212.7,51.1,212.7,50.8z M246.9,67.3h18.2v35.5c-3-0.1-6-0.2-9.1-0.2c-3,0-6.1,0.1-9.1,0.2V67.3L246.9,67.3z
	 M116.4,122.8c0,0-0.1-0.2-0.1-0.4c0-0.2,0.2-0.3,0.2-0.3l14.2-9.5c0,0,0.2-0.1,0.4-0.1s0.3,0.2,0.3,0.2l14.6,22
	c-5.1,3.3-10.1,6.8-14.9,10.5L116.4,122.8z M256,496c-104,0-188.7-84.6-188.7-188.7S152,118.6,256,118.6s188.7,84.6,188.7,188.7
	S360,496,256,496z"/>
<path d="M101.2,297.6c1.8-38.4,17.8-74.6,45.1-101.8c24-24,54.3-39.1,87.8-43.8c32.4-4.5,66,1.5,94.6,16.9c3.9,2.1,8.8,0.6,10.9-3.3
	s0.6-8.8-3.3-10.9c-31.6-17-68.7-23.6-104.4-18.6c-36.9,5.1-70.4,21.9-96.9,48.3c-30.1,30.1-47.7,70-49.7,112.4
	c-2,42.1,11.5,83.3,38.1,115.8c1.6,1.9,3.9,2.9,6.2,2.9c1.8,0,3.6-0.6,5.1-1.8c3.4-2.8,3.9-7.9,1.1-11.3
	C111.6,373,99.4,335.8,101.2,297.6z"/>
<path d="M406.2,226.5c-2.1-3.9-7-5.4-10.9-3.3c-3.9,2.1-5.4,7-3.3,10.9c15.4,28.6,21.4,62.2,16.9,94.6
	c-4.7,33.5-19.8,63.8-43.8,87.8c-27.2,27.2-63.4,43.2-101.8,45.1c-38.2,1.8-75.4-10.4-104.9-34.5c-3.4-2.8-8.5-2.3-11.3,1.1
	s-2.3,8.5,1.1,11.3c30.4,24.8,68.4,38.3,107.6,38.3c2.7,0,5.4-0.1,8.2-0.2c42.4-2,82.4-19.7,112.4-49.7c26.4-26.4,43.1-60,48.3-96.9
	C429.8,295.2,423.2,258.1,406.2,226.5z"/>
<path d="M353.6,187.6c4,3.3,7.9,6.8,11.6,10.5s7.3,7.6,10.6,11.7c1.6,1.9,3.9,2.9,6.2,2.9c1.8,0,3.6-0.6,5.1-1.8
	c3.4-2.8,3.9-7.9,1.1-11.3c-3.6-4.5-7.5-8.8-11.6-12.9c-4.1-4.1-8.4-8-12.8-11.6c-3.4-2.8-8.5-2.3-11.3,1.1
	C349.6,179.7,350.1,184.8,353.6,187.6z"/>
<path d="M308.9,223.2c-19.9-3.3-39.3,3.1-52.9,17.4c-13.6-14.3-33-20.7-52.9-17.4c-28.3,4.7-50.3,32.8-49.1,62.6
	c1.1,25.9,14,52.6,37.5,77.3c16.8,17.6,39.6,34.6,60.9,45.2c1.1,0.6,2.4,0.8,3.6,0.8h0.1c1.3,0,2.5-0.3,3.6-0.8
	c21.3-10.7,44.1-27.6,60.9-45.2c23.4-24.6,36.4-51.3,37.5-77.3C359.3,256,337.2,227.9,308.9,223.2z M342,285.1
	c-2,49.8-55.3,90.6-86,107c-30.8-16.4-84-57.3-86-107c-0.9-21.6,15.5-42.7,35.7-46.1c2.5-0.4,5-0.6,7.5-0.6
	c13.1,0,25.4,5.8,33.8,16.3c2.2,2.7,5.5,4.3,9,4.3c0,0,0,0,0.1,0c3.5,0,6.8-1.6,9-4.3c10-12.5,25.4-18.3,41.3-15.7
	C326.5,242.4,342.9,263.5,342,285.1z"/>
</svg>
