<?xml version="1.0" encoding="utf-8"?>
<!-- Generator: Adobe Illustrator 25.2.1, SVG Export Plug-In . SVG Version: 6.00 Build 0)  -->
<svg version="1.1" id="Layer_1" xmlns="http://www.w3.org/2000/svg" xmlns:xlink="http://www.w3.org/1999/xlink" x="0px" y="0px"
	 viewBox="0 0 512 512" style="enable-background:new 0 0 512 512;" xml:space="preserve">
<style type="text/css">
	.st0{fill:#F5C882;}
	.st1{fill:#F5AF73;}
	.st2{fill:#0069A2;}
	.st3{fill:#034970;}
</style>
<path class="st0" d="M358.2,12.3h-32.1c-28.1,0-52.6,21.6-53.4,49.7c-0.9,29.1,22.4,52.9,51.3,52.9h34.2c6.3,0,12.4-1.2,18-3.3
	c25.9,110.9-0.4,185.7-7.2,195.6c-18.8-22.9-47.2-37.5-79.2-37.5c-23.2,0-44.5,7.8-61.7,20.7c-4.5,3.4-10.9,2.9-14.8-1.2
	c-25.6-26.7-63.4-41.5-104.5-35.3c-52.5,7.9-94.1,51.4-100,104.2c-8,72,48.1,133,118.5,133c42.8,0,282.6,17.9,376.7-102.6
	C504,388.5,503.6,12.3,358.2,12.3z"/>
<g>
	<path class="st1" d="M376.1,111.6c25.9,110.9-0.4,185.7-7.2,195.6c7.8,8.3,18.1,15.8,27.9,21.9c13.7,8.5,31.5-0.5,33-16.5
		c12.8-143-40.5-213.7-40.5-213.7C385.1,105.6,376.1,111.6,376.1,111.6z"/>
	<path class="st1" d="M167.3,433.4c-63.1-25.7-110.1-93-87.2-171.1C37.7,280.6,8,322.7,8,371.9c0,65.9,53.4,119.3,119.3,119.3
		c42.8,0,282.6,17.9,376.7-102.6C429.2,462.3,243.9,464.6,167.3,433.4z"/>
</g>
<path class="st2" d="M186.2,253.4c-17.5-7.4-36.9-11.2-57.3-10C63.5,247.2,10.3,301.6,8.1,367.1C5.7,439.9,64,499.7,136.3,499.7
	c7.8,0,15.4-0.8,22.8-2.1c3.7-0.7,6.4-3.8,6.8-7.5l25.3-227.9C191.6,258.5,189.6,254.9,186.2,253.4z"/>
<path class="st3" d="M78.1,284.7c0-0.1,0-0.2,0-0.3c0.4-12.5-13.7-19.5-23.3-11.6c-27.5,22.8-45.5,56.7-46.7,94.2
	C5.7,439.9,64,499.7,136.3,499.7c7.8,0,15.4-0.8,22.8-2.1c3.7-0.7,6.4-3.8,6.8-7.5l6.1-55.2C115.5,411.5,76,352.9,78.1,284.7z"/>
<path d="M493.5,198.9c-10.8-55.5-25.7-99.8-44.2-131.8c-24.2-41.7-54.8-62.8-91-62.8l0,0H324c-32.7,0-59.3,26.6-59.3,59.3
	s26.6,59.3,59.3,59.3h34.2c3.5,0,6.9-0.3,10.3-0.9c11.7,65.4,9,109.6,4.6,135.3c-2.7,15.5-6.2,26.4-9,33
	c-20.1-18.2-46.6-28.7-74.3-28.7c-25.1,0-49.2,8.5-68.8,24.1c-6.7-7.2-14.1-13.7-22.3-19.2l0.4-3.5c0.8-7.2-3.2-14.2-9.8-17
	c-19.5-8.3-40-11.9-60.9-10.6c-69.6,4.1-126,61.8-128.3,131.4c-1.2,37.3,12.3,72.6,38.2,99.4c25.9,26.8,60.7,41.5,98,41.5
	c7.9,0,16.1-0.8,24.2-2.3c3.7-0.7,7-2.7,9.4-5.4c4.5,0.1,9,0.1,13.5,0.1c60.1,0,111.7-4.8,157.6-14.7
	c77.8-16.8,134.8-47.7,169.4-91.9c1.1-1.4,1.7-3.1,1.7-4.9C512,387.6,511.7,292.6,493.5,198.9z M157.9,489.2c0,0.3-0.2,0.4-0.3,0.5
	c-6.9,1.3-13.8,1.9-20.6,2l15.2-136.5c0.5-4.4-2.7-8.4-7.1-8.9c-4.4-0.5-8.4,2.7-8.9,7.1L121,490.7C94,487.4,69.1,475,49.8,455
	C27,431.4,15,400.3,16.1,367.3c2-61.4,51.8-112.4,113.2-115.9c2.4-0.1,4.7-0.2,7-0.2c3.8,0,7.5,0.2,11.2,0.5l-2.2,19.4
	c-0.5,4.4,2.7,8.4,7.1,8.9c0.3,0,0.6,0,0.9,0c4,0,7.5-3,8-7.1l2.1-18.6c6.7,1.6,13.2,3.7,19.6,6.4c0,0,0.2,0.2,0.2,0.5L157.9,489.2z
	 M337.6,469.7c-46.9,10.1-100.3,14.8-163,14.3L196.7,285c6.3,5.1,12.1,10.8,17.2,17.1c1.4,1.7,3.4,2.8,5.7,3c2.2,0.2,4.4-0.6,6-2.1
	c17.6-16.3,40.4-25.2,64.2-25.2c33.3,0,64.5,17.8,81.5,46.5c1.5,2.5,4.2,3.9,6.9,3.9c1.4,0,2.8-0.4,4.1-1.1c3.8-2.3,5.1-7.2,2.8-11
	c-2.7-4.6-5.8-9-9.1-13.1c7.7-15.4,28.8-70.6,7.9-185.9c5-2.4,9.7-5.5,13.9-9.3c3.3-3,3.6-8,0.6-11.3c-3-3.3-8-3.6-11.3-0.6
	c-7.9,7.1-18.2,11-28.9,11H324c-23.9,0-43.3-19.4-43.3-43.3s19.4-43.3,43.3-43.3h34.2c30.1,0,56,18.4,77.1,54.7
	c17.7,30.4,31.9,73,42.4,126.7c16.2,83.3,18,167.8,18.2,184C463.6,425.8,410.3,454.1,337.6,469.7z"/>
<path d="M359.6,357.4c-2.4,2.6-5.4,5.1-8.9,7.4c-3.7,2.5-4.7,7.4-2.2,11.1c1.5,2.3,4.1,3.6,6.7,3.6c1.5,0,3.1-0.4,4.4-1.3
	c4.5-3,8.4-6.3,11.7-9.7c3-3.2,2.9-8.3-0.4-11.3C367.7,354,362.6,354.2,359.6,357.4z"/>
<path d="M322.1,376.8c-10.2,2.5-21,3.8-32.3,3.8c-23.7,0-45.9-5.7-61-15.8c-3.7-2.5-8.7-1.5-11.1,2.2c-2.5,3.7-1.5,8.7,2.2,11.1
	c17.6,11.7,43,18.5,69.9,18.5c12.5,0,24.7-1.4,36.1-4.2c4.3-1.1,6.9-5.4,5.9-9.7C330.7,378.3,326.4,375.7,322.1,376.8z"/>
<path d="M415.5,209.9c-4.2,1.4-6.5,5.9-5.1,10.1c16.2,48.6,8.4,98.1,8.2,98.8c-0.7,4.4,2.2,8.5,6.6,9.2c0.4,0.1,0.9,0.1,1.3,0.1
	c3.8,0,7.2-2.8,7.9-6.7c0.4-2.2,8.7-53.9-8.9-106.5C424.3,210.8,419.7,208.5,415.5,209.9z"/>
<path d="M150.8,295.1c-4.4-0.5-8.4,2.7-8.9,7.1l-1.9,17.1c-0.5,4.4,2.7,8.4,7.1,8.9c0.3,0,0.6,0,0.9,0c4,0,7.5-3,8-7.1l1.9-17.1
	C158.4,299.5,155.2,295.5,150.8,295.1z"/>
</svg>
