<?xml version="1.0" encoding="utf-8"?>
<!-- Generator: Adobe Illustrator 25.2.1, SVG Export Plug-In . SVG Version: 6.00 Build 0)  -->
<svg version="1.1" id="Layer_1" xmlns="http://www.w3.org/2000/svg" xmlns:xlink="http://www.w3.org/1999/xlink" x="0px" y="0px"
	 viewBox="0 0 512 512" style="enable-background:new 0 0 512 512;" xml:space="preserve">
<style type="text/css">
	.st0{fill:#232629;}
</style>
<path class="st0" d="M57.5,213.9c-1.3-6.4,1.6-12.8,7-17.1v-99h-8.1c-17.8,0-32.3,15.3-32.3,34.2v59.9c0,9.4-7.2,17.1-16.1,17.1
	c0,14.2,24.2,42.8,56.4,25.7v-10.5C60.9,221.7,58.4,218.1,57.5,213.9z"/>
<path class="st0" d="M212.2,399.5l14.3,26.7c1.2-0.9,2.3-1.8,3.5-2.8c20-15.7,39.9-36.6,56.2-55.5c4.7-5.5-2.3-13.1-8.2-8.9
	C254.8,375.6,230.8,389.6,212.2,399.5z"/>
<path class="st0" d="M259.8,396.6l-14.8-15.8c-18,11-34.6,19.9-46.6,25.9c-12.4,6.3-27.1,5.1-38.6-2.6c-4.7-3.2-9.1-6.5-13.3-9.9
	l-24.1,19.7c10.7,13.4,22.8,26.8,40.3,31.6c30.6,8.5,48.3-7.1,67.3-22.1C240.1,415.5,250.2,406.2,259.8,396.6z"/>
<path class="st0" d="M447.5,410.1l-93.9-97.4c-5.6-5.8-14.8-6.1-20.7-0.7l-8.5,7.7L427,414.2L447.5,410.1z"/>
<path class="st0" d="M469.8,405.6h-34.2c-4.7,0-8.6,3.8-8.6,8.6v34.2h77v-8.6C504,421,488.7,405.6,469.8,405.6z"/>
<path class="st0" d="M77,234.6c-1.1,0.2-2.2,0.3-3.1,0.3c-6.7,0-16.3-3.2-20.9-13.4c-1.1-2.5-1.8-5.5-1.9-8.5
	C34.6,307.5,72,356,107.8,396c4.8,5.4,9.5,11.6,14.6,17.9l24.1-19.7C87.2,346,74.4,274.6,77,234.6z"/>
<g>
	<path class="st0" d="M115.5,124.4l-39.6-19.8c-2.7-1.4-4.9-3.3-6.5-5.7c-1,3.8-1.5,7.7-1.5,11.7v18.7c0,7.1,1.6,13.7,4.4,19.7
		C92.1,141.5,103.2,131.7,115.5,124.4z"/>
	<path class="st0" d="M91.1,74l70.8,35.4c-0.7-25.4-21.5-45.7-47-45.7c-10.3,0-19.9,3.3-27.6,9C88.6,72.9,89.9,73.3,91.1,74z"/>
</g>
<path d="M473.7,397.8c-14-16.8-86.3-103.4-114.3-130.5c-14.8-14.3-41.1-24.4-81.9,9.2l-98.9,79.9c-30-17.8-34.1-48.7-34.3-50
	c0-0.3-0.1-0.6-0.2-0.9c0.1-1,2.3-3.8,3.7-5.7c5.2-6.8,13.1-17.2,9.9-34.6c-1.4-7.8-9.7-14.8-20.1-23.6
	c-5.8-4.9-12.3-10.4-17.1-15.7l74.6-30.7c15.5-6.4,25.5-20.7,26.1-37.5c0.6-16.7-8.3-31.8-23.3-39.3l-28.3-14.2
	c-3.2-27.5-26.8-48.6-54.7-48.6c-10.6,0-20.7,3-29.6,8.6c-3.3-0.2-6.6,0.2-9.8,1.2C69.2,67.5,64,72,61,78c-1.9,3.8-2.7,7.8-2.6,11.8
	C35.5,90.3,17.1,109,17.1,132v59.9c0,5-4.1,9.1-9.1,9.1c-4.4,0-8,3.6-8,8c0,9.2,5,19,13.4,26.2c7.4,6.4,16.5,10,26,10.4
	c-3.7,74.3,28.4,117.7,62.4,155.7c3.3,3.7,6.6,7.8,10,12.3c12.4,15.7,26.4,33.5,48.7,39.6c6.7,1.9,12.9,2.7,18.6,2.7
	c22.6,0,38.6-12.6,53-24l2.8-2.2c38.9-30.5,76.9-79.5,90.7-98.1l93.4,86v30.7c0,4.4,3.6,8,8,8h77c4.4,0,8-3.6,8-8v-8.6
	C512,417.9,495.1,399.8,473.7,397.8z M114.9,71.6c15.7,0,29.4,9.4,35.6,23.1l-44.2-22.1C109.1,71.9,112,71.6,114.9,71.6z
	 M61.1,205.9c1.3-3,3.9-5.2,7.7-6.4l112.7-35.7c3.1-1,5.3-3.8,5.6-7c0.3-3.3-1.5-6.3-4.4-7.8L79.4,97.4c-4.5-2.2-6.3-7.7-4.1-12.2
	c1.1-2.2,3-3.8,5.3-4.6c0.9-0.3,1.9-0.5,2.9-0.5c1.4,0,2.8,0.3,4.1,1l103.2,51.6c9.3,4.7,14.8,14,14.5,24.4
	c-0.4,10.4-6.6,19.3-16.2,23.3L78.4,225.9c-1.1,0.5-2.3,0.7-3.5,0.7c-1.6,0-9.9-0.4-13.5-8.6C59.7,214.1,59.6,209.4,61.1,205.9z
	 M89,176.3l-13.1,4.2v-13.9C79.7,170.4,84.2,173.7,89,176.3z M75.9,127.8v-14.2l71.5,35.8c-2.5,3.7-5.5,7-9.1,9.6
	c-2.7,2.1-5.9,3.6-9.1,4.6l-6.1,1.9c-2.6,0.8-5.3,1.3-8.1,1.3h0C93.4,166.8,75.9,149.3,75.9,127.8z M46.5,199.4
	c-3.1,7.6-5,23.1-5.8,30.3c-8-0.2-13.9-4-16.8-6.6c-2.7-2.3-4.9-5.1-6.2-8c9.1-3.8,15.5-12.8,15.5-23.2V132
	c0-14.4,11.7-26.2,26.2-26.2h0.5v80C53.7,188.8,48.9,193.3,46.5,199.4z M225,417.2l-2.8,2.2c-17.3,13.7-32.3,25.5-57.4,18.5
	c-17.2-4.8-29-19.7-40.3-34.1c-3.6-4.6-7.1-9-10.7-13c-16.7-18.7-35.5-41.1-47-70c-10-25.2-13.5-53-10.6-84.3
	c5.9,4.4,12.9,6.2,18.8,6.2c3.3,0,6.5-0.6,9.6-1.9l20.5-8.4c6,7.8,14.6,15.1,22.3,21.6c5.5,4.6,13.7,11.6,14.7,14.3
	c1.8,10.4-2.4,16-6.9,21.9c-3.7,4.8-8.2,10.8-6.6,18.6c0.6,4.5,6.1,37.2,37,58.3l-20.2,16.3c-3.4,2.8-4,7.8-1.2,11.3
	c2.8,3.4,7.8,4,11.3,1.2l53-42.8l40.2,43.5C240.7,404,232.9,411,225,417.2z M425,401.4l-95.2-87.6c-3.3-3-8.3-2.8-11.3,0.5
	c-0.2,0.3-0.4,0.5-0.6,0.8l0,0c-0.3,0.5-26.1,36.8-58.2,70.1l-39-42.2l66.9-54c25.8-21.3,45.6-24.6,60.6-10.1
	c23.3,22.5,80.4,90.1,104.4,118.8h-17.1C431.6,397.6,427.9,399.1,425,401.4z M496,440.4H435v-26.2c0-0.3,0.2-0.5,0.5-0.5h34.2
	c14.4,0,26.2,11.7,26.2,26.2L496,440.4L496,440.4z"/>
</svg>
