<?xml version="1.0" encoding="utf-8"?>
<!-- Generator: Adobe Illustrator 25.2.1, SVG Export Plug-In . SVG Version: 6.00 Build 0)  -->
<svg version="1.1" id="Layer_1" xmlns="http://www.w3.org/2000/svg" xmlns:xlink="http://www.w3.org/1999/xlink" x="0px" y="0px"
	 viewBox="0 0 512 512" style="enable-background:new 0 0 512 512;" xml:space="preserve">
<style type="text/css">
	.st0{fill:#232629;}
</style>
<path class="st0" d="M229.5,314.5l-3.7,7.9c-1.8,4-6.4,5.9-10.5,4.5l12.3,3.9c7.7,2.5,16-1.2,19.3-8.6l0.2-0.5L229.5,314.5z"/>
<g>
	<path class="st0" d="M455.2,462.4H395V428h34.4c14.2,0,25.8,11.5,25.8,25.8L455.2,462.4L455.2,462.4z"/>
	<path class="st0" d="M94,349.2l20.4-56.6l32.4,11.6l-11.6,32.4c-4.8,13.4-19.6,20.4-33,15.5L94,349.2z"/>
</g>
<polygon class="st0" points="276.7,255.6 260.1,248.7 229.5,314.5 247.1,321.8 "/>
<path class="st0" d="M293.7,176.8l-33.5,71.9l16.5,6.8l33-73.8c3.6-8.1-0.1-17.6-8.3-21l-16.3-6.9
	C293.9,157.8,297.7,168.1,293.7,176.8z"/>
<path class="st0" d="M369.2,92.6V75.4c0-14.2,11.5-25.8,25.8-25.8h-25.8c-14.2,0-25.8,11.5-25.8,25.8v17.2c0,19,15.4,34.4,34.4,34.4
	c4.6,0,8.9-0.9,12.9-2.6C378.1,119.4,369.2,107.1,369.2,92.6z"/>
<path class="st0" d="M343.4,75.4v17.2c0,3,0.5,5.8,1.2,8.6H360c3.5,0,6.8-1.2,9.7-3.1c-0.3-1.8-0.4-3.6-0.4-5.5V75.4
	c0-14.2,11.5-25.8,25.8-25.8h-25.8C355,49.6,343.4,61.2,343.4,75.4z"/>
<path d="M239.7,230.2c0-4.5-3.6-8.1-8.1-8.1H8.1c-4.5,0-8.1,3.6-8.1,8.1s3.6,8.1,8.1,8.1h223.6C236.1,238.3,239.7,234.7,239.7,230.2
	z"/>
<path d="M76.9,203.9l68.8,0l0,0c4.5,0,8.1-3.6,8.1-8.1s-3.6-8.1-8.1-8.1l-68.8,0l0,0c-4.5,0-8.1,3.6-8.1,8.1S72.4,203.9,76.9,203.9z
	"/>
<path d="M119.8,169.5L119.8,169.5l25.8,0c4.5,0,8.1-3.6,8.1-8.1c0-4.5-3.6-8.1-8.1-8.1h0l-25.8,0c-4.5,0-8.1,3.6-8.1,8.1
	C111.8,165.9,115.4,169.5,119.8,169.5z"/>
<path d="M222.5,264.6c0-4.5-3.6-8.1-8.1-8.1H76.9c-4.5,0-8.1,3.6-8.1,8.1s3.6,8.1,8.1,8.1h137.6C218.9,272.7,222.5,269,222.5,264.6z
	"/>
<path d="M25.3,203.9h17.2c4.5,0,8.1-3.6,8.1-8.1s-3.6-8.1-8.1-8.1H25.3c-4.5,0-8.1,3.6-8.1,8.1S20.8,203.9,25.3,203.9z"/>
<path d="M382.7,206.6l20.8,9.4c6.7,3,13.7,4.5,21,4.5c12.9,0,25.2-4.8,34.7-13.6l44.3-41c9.4-8.7,11.4-22.8,4.6-33
	c-4.1-6.3-10.8-10.3-18.1-11.2c-7.4-0.9-14.7,1.5-20.2,6.5l-44.9,41.6c-0.2,0.1-0.4,0.2-0.6,0.1l-38.1-17.1
	c-7.3-3.3-15.9-0.8-20.6,5.8c-6.6,9.5-16.2,14.1-23.4,11c-7.5-3.1-11-14-8.3-25.7c1.8-7.7-2.2-15.7-9.4-18.9l-41.7-18.8
	c-18-8.1-39.2-5-54.2,7.8l-47.1,40.3c-9.7,8.3-12.2,22.4-5.9,32.8c3.9,6.4,10.3,10.8,17.7,11.9c7.3,1.2,14.8-0.9,20.4-5.8l47.8-40.9
	c0.2-0.1,0.4-0.2,0.6-0.1l19.8,8.9c2.2,1,4,2.8,4.8,5.1s0.8,4.8-0.3,7l-67.9,145.6c-0.1,0.3-0.4,0.4-0.7,0.3L117.2,285
	c-4.2-1.5-8.8,0.7-10.3,4.9l-20.4,56.6c-0.7,2-0.6,4.2,0.3,6.2c0.9,1.9,2.6,3.4,4.6,4.2l8.1,2.9c3.8,1.4,7.6,2,11.4,2
	c11.3,0,22.1-5.7,28.4-15.3l68.7,22.9c5.2,1.7,10.7,2.6,16.2,2.6c19.7,0,37.8-11.5,46.2-29.3l15.7-30.7l72.8,30.1
	c0.2,0.1,0.3,0.2,0.3,0.4l27.9,89.2v31c0,4.5,3.6,8.1,8.1,8.1h60.2c4.5,0,8.1-3.6,8.1-8.1v-8.6c0-16.2-11.4-29.8-26.6-33.1
	l-31.1-100.4c-4.5-14.5-15.1-26.3-29.2-32.1l-34.9-14.5l29.2-62.6C372.7,206.6,378.1,204.6,382.7,206.6z M435.7,181.6l44.9-41.6
	c2-1.8,4.6-2.7,7.3-2.4c2.7,0.3,5.1,1.8,6.6,4.1c2.4,3.6,1.4,8.9-2.2,12.2l-44.3,41c-6.5,6-14.9,9.3-23.7,9.3c-5,0-9.8-1-14.4-3.1
	l-7.4-3.3l7.8-16.5l7.1,3.2C423.7,187.3,430.8,186.2,435.7,181.6z M250.9,140.1l-47.8,40.9c-2,1.7-4.7,2.5-7.4,2.1
	c-2.7-0.4-5-2-6.4-4.4c-2.2-3.7-1.1-9,2.6-12.2l47.1-40.3c10.2-8.8,24.8-10.9,37.1-5.3l7.7,3.5l-7.8,16.5l-7.4-3.3
	C262.8,135,255.8,136,250.9,140.1z M104.9,344.5l-0.5-0.2l14.9-41.5l17.2,6.2l-8.9,24.8C124.3,343.1,114.1,347.9,104.9,344.5z
	 M255.7,335.6c-5.7,12.3-18.1,20.2-31.6,20.2c-3.7,0-7.5-0.6-11.1-1.8l-67.4-22.4l6.2-17.2l61,20.3c8,2.7,16.8-1.1,20.4-8.8l0.4-0.9
	l22.8,9.4l-0.5,1C255.7,335.4,255.7,335.5,255.7,335.6z M447.1,453.8v0.5h-44.1V436h26.3C439.2,436,447.1,444,447.1,453.8z
	 M390.1,325.1l29.4,94.8h-19.3l-25.8-82.4c-1.5-4.8-4.9-8.6-9.5-10.5l-7.5-3.1l9-22.4l3.8,1.6C379.8,307.1,387,315.1,390.1,325.1z
	 M356,204.3l-29.5,63.2l-31.6-13.1c-4.1-1.7-8.8,0.3-10.5,4.4c-1.7,4.1,0.3,8.8,4.4,10.5l62.8,26l-9,22.4l-57.3-23.7
	c-3.9-1.6-8.3,0-10.3,3.8L263.6,320l-23.3-9.6L301,180.2c2.9-6.2,3.2-13.1,0.8-19.5c-2.1-5.6-6-10.2-11.1-13.1l7.9-16.6l19.3,8.7
	c0.2,0.1,0.3,0.4,0.2,0.6c-4.5,19.7,2.9,37.9,17.8,44.1c14.3,6,32-0.9,42.9-16.7c0.2-0.2,0.4-0.4,0.7-0.3l16.3,7.4l-7.8,16.6
	C375.7,186.7,361.6,192.2,356,204.3z"/>
<path d="M377.8,135.1c23.4,0,42.5-19,42.5-42.5v-43c0-4.5-3.6-8.1-8.1-8.1h-43c-18.7,0-33.9,15.2-33.9,33.9v17.2
	C335.4,116,354.4,135.1,377.8,135.1z M351.5,75.4c0-9.8,8-17.7,17.7-17.7h34.9v34.9c0,14.5-11.8,26.3-26.3,26.3l0,0
	c-14.5,0-26.3-11.8-26.3-26.3V75.4z"/>
</svg>
