<?xml version="1.0" encoding="utf-8"?>
<!-- Generator: Adobe Illustrator 25.2.1, SVG Export Plug-In . SVG Version: 6.00 Build 0)  -->
<svg version="1.1" id="Capa_1" xmlns="http://www.w3.org/2000/svg" xmlns:xlink="http://www.w3.org/1999/xlink" x="0px" y="0px"
	 viewBox="0 0 512 512" style="enable-background:new 0 0 512 512;" xml:space="preserve">
<style type="text/css">
	.st0{fill:#232629;}
</style>
<path class="st0" d="M281.6,241.1v44.3c15.3,4.4,25.6,12.6,25.6,22s-10.3,17.6-25.6,22v8.6c-16.8,4.4-34.4,4.4-51.2,0v-8.6
	c-15.3-4.4-25.6-12.6-25.6-22s10.3-17.6,25.6-22v-44.3c-44.2,7.6-76.8,34.3-76.8,66.1c0,37.7,45.8,68.3,102.4,68.3
	s102.4-30.6,102.4-68.3C358.4,275.4,325.8,248.7,281.6,241.1z"/>
<polygon class="st0" points="307.2,59.7 204.8,59.7 204.8,85.3 307.2,99 "/>
<path class="st0" d="M374.8,22.2c-10.7,17.4-29.6,27.9-50,27.9H77.2c1.3,5.9,6.3,10.3,12.3,11l217.7,24.2h38.4
	c21.1,0.1,38.3-16.9,38.4-38C384.1,38.1,380.8,29.2,374.8,22.2z"/>
<path class="st0" d="M358.4,307.2c0,37.7-45.9,68.3-102.4,68.3h102.4V307.2z"/>
<rect x="281.6" y="34.1" width="17.1" height="25.6"/>
<path d="M503.5,366.9H366.9v-59.7c0-33.6-31.2-62.9-76.8-73v-41.9c16.1-11.2,25.6-29.5,25.6-49V93.9h29.9c14,0,27.3-6.3,36.2-17.1
	h62c4.7,0,8.5-3.8,8.5-8.5V17.1c0-4.7-3.8-8.5-8.5-8.5h-71.2c-8-5.6-17.4-8.6-27-8.6h-38.4c-0.3,0-0.6,0-0.9,0.1L88.6,24.2
	C76,25.6,67,36.9,68.4,49.4c1.2,10.6,9.6,19,20.2,20.2l107.7,12v61.7c0,19.6,9.5,37.9,25.6,49v38.1H8.5c-4.7,0-8.5,3.8-8.5,8.5v128
	c0,4.7,3.8,8.5,8.5,8.5H145v59.7c0,42.3,49.8,76.8,110.9,76.8h247.5c4.7,0,8.5-3.8,8.5-8.5v-128C512,370.8,508.2,366.9,503.5,366.9z
	 M349.9,366.9h-24.3c9.1-5,17.3-11.4,24.3-19V366.9z M349.9,307.2c0,32.9-42.1,59.7-93.9,59.7s-93.9-26.8-93.9-59.7
	c0-24.6,24.1-46.6,59.7-55.5v18.5c-21.2,7.5-34.1,21.2-34.1,37c0,17.3,15.5,32.3,40.4,39l0,0c18.2,4.8,37.4,4.8,55.7,0l0,0
	c24.9-6.8,40.4-21.7,40.4-39c0-15.8-13-29.5-34.1-37v-18.5C325.8,260.6,349.9,282.6,349.9,307.2z M290.1,288.5
	c10.5,4.9,17.1,11.8,17.1,18.7s-6.5,13.8-17.1,18.7V288.5z M204.8,307.2c0-6.8,6.5-13.8,17.1-18.7v37.4
	C211.3,321,204.8,314,204.8,307.2z M390.7,59.7c0.2-0.6,0.3-1.1,0.4-1.7l44-12.6v14.3H390.7L390.7,59.7z M435.2,27.7L392,40
	c-0.7-5-2.3-9.9-4.6-14.4h47.8L435.2,27.7L435.2,27.7z M85.3,46.9c0-2.9,2.2-5.4,5.1-5.7l139.9-15.5v25.5h17.1V23.8l60.2-6.7h8.1
	v25.6h17.1V17.1h12.8c16.5,0,29.9,13.4,29.9,29.9s-13.4,29.9-29.9,29.9h-37.9l-120-13.4V42.7h-17.1v18.9l-80.2-8.9
	C87.5,52.3,85.3,49.9,85.3,46.9z M213.3,143.3v-58h16.6l0.5,0.1v59.7h17.1V87.3l17.1,1.9v55.9h17.1v-54l17.1,1.9v50.3
	c0,14.3-7.1,27.6-19,35.5l-2.8,1.9c-2.4,1.6-3.8,4.2-3.8,7.1v143.5c-11.3,2.1-22.9,2.1-34.1,0V187.7c0-2.9-1.4-5.5-3.8-7.1l-2.8-1.9
	C220.5,170.9,213.3,157.5,213.3,143.3z M17.1,358.4V247.5h169.2c-25.4,14.2-41.2,35.8-41.2,59.7v51.2L17.1,358.4L17.1,358.4z
	 M494.9,494.9H256c-51.8,0-93.9-26.8-93.9-59.7v-87.3c7.4,7.9,16,14.6,25.6,19.6v42h17.1v-34.3c8.3,3,16.9,5.2,25.7,6.6l-0.1,36.3
	h17.1l0.1-34.5c2.8,0.1,5.6,0.3,8.5,0.3h17.1l-0.1,34.3h17.1l0.1-34.3h25.6l-0.1,34.4h17.1l0.1-34.4h25.6l-0.1,34.5h17.1l0.1-34.5
	h25.6l-0.1,34.6h17.1l0.1-34.6H444l-0.1,34.7H461l0.1-34.7h34.1L494.9,494.9L494.9,494.9z"/>
</svg>
