<?xml version="1.0" encoding="utf-8"?>
<!-- Generator: Adobe Illustrator 25.2.1, SVG Export Plug-In . SVG Version: 6.00 Build 0)  -->
<svg version="1.1" id="Capa_1" xmlns="http://www.w3.org/2000/svg" xmlns:xlink="http://www.w3.org/1999/xlink" x="0px" y="0px"
	 viewBox="0 0 512 512" style="enable-background:new 0 0 512 512;" xml:space="preserve">
<style type="text/css">
	.st0{fill:#679522;}
	.st1{fill:#77A226;}
	.st2{fill:#5B8670;}
	.st3{fill:#B6EED2;}
	.st4{fill:#E5E5E5;}
	.st5{fill:#D6D6D6;}
	.st6{fill:#CFCFCF;}
	.st7{fill:#FD7B2F;}
	.st8{fill:#F46B27;}
	.st9{fill:#83C3A3;}
	.st10{fill:#8C421C;}
	.st11{fill:#DB631D;}
</style>
<rect x="349.9" y="17.1" class="st0" width="93.9" height="51.2"/>
<polygon class="st1" points="349.9,17.1 443.7,17.1 443.7,34.1 358.4,59.7 "/>
<rect x="8.5" y="238.9" class="st2" width="247.5" height="128"/>
<ellipse class="st3" cx="256" cy="307.2" rx="102.4" ry="68.3"/>
<ellipse class="st2" cx="256" cy="307.2" rx="59.7" ry="34.1"/>
<path class="st4" d="M204.8,59.7v83.5c0,17.1,8.6,33.1,22.8,42.6l2.8,1.9V338c16.8,4.4,34.4,4.4,51.2,0V187.7l2.8-1.9
	c14.2-9.5,22.8-25.5,22.8-42.6V59.7H204.8z"/>
<polygon class="st5" points="307.2,59.7 204.8,59.7 204.8,85.3 307.2,99 "/>
<g>
	<rect x="230.4" y="59.7" class="st6" width="17.1" height="85.3"/>
	<rect x="264.5" y="59.7" class="st6" width="17.1" height="85.3"/>
</g>
<path class="st7" d="M345.6,85.3h-38.4L89.5,61.2c-7.2-0.8-12.7-6.9-12.7-14.2l0,0c0-7.3,5.5-13.4,12.7-14.2L307.2,8.5h38.4
	c21.2,0,38.4,17.2,38.4,38.4l0,0C384,68.1,366.8,85.3,345.6,85.3z"/>
<path class="st8" d="M374.8,22.2c-10.7,17.4-29.6,27.9-50,27.9H77.2c1.3,5.9,6.3,10.3,12.3,11l217.7,24.2h38.4
	c21.1,0.1,38.3-16.9,38.4-38C384.1,38.1,380.8,29.2,374.8,22.2z"/>
<path class="st2" d="M256,375.5v128c56.5,0,102.4-30.6,102.4-68.3v-128C358.4,344.9,312.5,375.5,256,375.5z"/>
<path class="st9" d="M256,375.5c-56.6,0-102.4-30.6-102.4-68.3v128c0,37.7,45.9,68.3,102.4,68.3h247.5v-128H256z"/>
<g>
	
		<rect x="430.7" y="388.5" transform="matrix(1.999996e-03 -1 1 1.999996e-03 54.3531 848.5915)" class="st10" width="43.2" height="17.1"/>
	
		<rect x="388.1" y="388.5" transform="matrix(1.999996e-03 -1 1 1.999996e-03 11.8033 805.8975)" class="st10" width="43.1" height="17.1"/>
	
		<rect x="345.5" y="388.5" transform="matrix(1.999996e-03 -1 1 1.999996e-03 -30.7835 763.2403)" class="st10" width="43" height="17.1"/>
	
		<rect x="302.9" y="388.4" transform="matrix(1.999996e-03 -1 1 1.999996e-03 -73.2772 720.4908)" class="st10" width="42.9" height="17.1"/>
	
		<rect x="260.2" y="388.3" transform="matrix(1.999996e-03 -1 1 1.999996e-03 -115.7832 677.733)" class="st10" width="42.8" height="17.1"/>
	<path class="st10" d="M247.5,418.2l0.1-43.1c-5.7-0.3-11.4-1-17.1-1.9l-0.1,45L247.5,418.2z"/>
	<path class="st10" d="M187.7,409.6h17.1v-43.3c-5.7-2.2-11.3-4.9-16.5-8h-0.5V409.6z"/>
</g>
<g>
	<rect x="315.7" y="8.5" class="st11" width="17.1" height="34.1"/>
	<rect x="281.6" y="34.1" class="st11" width="17.1" height="25.6"/>
	<polygon class="st11" points="247.5,51.2 247.5,15.2 230.4,17.1 230.4,51.2 	"/>
	<polygon class="st11" points="170.7,42.7 170.7,70.2 187.7,72.1 187.7,42.7 	"/>
</g>
<path d="M503.5,366.9H366.9v-59.7c0-33.6-31.2-62.9-76.8-73v-41.9c16.1-11.2,25.6-29.5,25.6-49V93.9h29.9c14,0,27.3-6.3,36.2-17.1
	h62c4.7,0,8.5-3.8,8.5-8.5V17.1c0-4.7-3.8-8.5-8.5-8.5h-71.2C364.6,3,355.2,0,345.6,0h-38.4c-0.3,0-0.6,0-0.9,0.1L88.6,24.2
	C76,25.6,67,36.9,68.4,49.4c1.2,10.6,9.6,19,20.2,20.2l107.7,12v61.7c0,19.6,9.5,37.9,25.6,49v38.1H8.5c-4.7,0-8.5,3.8-8.5,8.5v128
	c0,4.7,3.8,8.5,8.5,8.5h136.5v59.7c0,42.3,49.8,76.8,110.9,76.8h247.5c4.7,0,8.5-3.8,8.5-8.5v-128
	C512,370.8,508.2,366.9,503.5,366.9z M349.9,366.9h-24.3c9.1-5,17.3-11.4,24.3-19V366.9z M349.9,307.2c0,32.9-42.1,59.7-93.9,59.7
	s-93.9-26.8-93.9-59.7c0-24.6,24.1-46.6,59.7-55.5v18.5c-21.2,7.5-34.1,21.2-34.1,37c0,17.3,15.5,32.3,40.4,39l0,0
	c18.2,4.8,37.4,4.8,55.7,0l0,0c24.9-6.8,40.4-21.7,40.4-39c0-15.8-13-29.5-34.1-37v-18.5C325.8,260.6,349.9,282.6,349.9,307.2z
	 M290.1,288.5c10.5,4.9,17.1,11.8,17.1,18.7s-6.5,13.8-17.1,18.7V288.5z M204.8,307.2c0-6.8,6.5-13.8,17.1-18.7v37.4
	C211.3,321,204.8,314,204.8,307.2z M390.7,59.7c0.2-0.6,0.3-1.1,0.4-1.7l44-12.6v14.3L390.7,59.7L390.7,59.7z M435.2,27.7L392,40
	c-0.7-5-2.3-9.9-4.6-14.4h47.8V27.7z M85.3,46.9c0-2.9,2.2-5.4,5.1-5.7l139.9-15.5v25.5h17.1V23.8l60.2-6.7h8.1v25.6h17.1V17.1h12.8
	c16.5,0,29.9,13.4,29.9,29.9s-13.4,29.9-29.9,29.9h-37.9L187.7,63.5V42.7h-17.1v18.9l-80.2-8.9C87.5,52.3,85.3,49.9,85.3,46.9z
	 M213.3,143.3V85.3h16.6l0.5,0.1v59.7h17.1V87.3l17.1,1.9v55.9h17.1v-54l17.1,1.9v50.3c0,14.3-7.1,27.6-19,35.5l-2.8,1.9
	c-2.4,1.6-3.8,4.2-3.8,7.1v143.5c-11.3,2.1-22.9,2.1-34.1,0V187.7c0-2.9-1.4-5.5-3.8-7.1l-2.8-1.9
	C220.5,170.9,213.3,157.5,213.3,143.3z M17.1,358.4V247.5h169.2c-25.4,14.2-41.2,35.8-41.2,59.7v51.2L17.1,358.4L17.1,358.4z
	 M494.9,494.9H256c-51.8,0-93.9-26.8-93.9-59.7v-87.3c7.4,7.9,16,14.6,25.6,19.6v42h17.1v-34.3c8.3,3,16.9,5.2,25.7,6.6l-0.1,36.3
	h17.1l0.1-34.5c2.8,0.1,5.6,0.3,8.5,0.3h17.1l-0.1,34.3h17.1l0.1-34.3h25.6l-0.1,34.4h17.1l0.1-34.4h25.6l-0.1,34.5h17.1l0.1-34.5
	h25.6l-0.1,34.6h17.1l0.1-34.6h25.6l-0.1,34.7h17.1l0.1-34.7h34.1L494.9,494.9L494.9,494.9z"/>
<rect x="281.6" y="34.1" width="17.1" height="25.6"/>
</svg>
