<?xml version="1.0" encoding="utf-8"?>
<!-- Generator: Adobe Illustrator 25.2.1, SVG Export Plug-In . SVG Version: 6.00 Build 0)  -->
<svg version="1.1" id="Capa_1" xmlns="http://www.w3.org/2000/svg" xmlns:xlink="http://www.w3.org/1999/xlink" x="0px" y="0px"
	 viewBox="0 0 512 512" style="enable-background:new 0 0 512 512;" xml:space="preserve">
<style type="text/css">
	.st0{fill:#6E4848;}
	.st1{fill:#FDD4BB;}
	.st2{fill:#F7C4A8;}
	.st3{fill:#EBBAA1;}
	.st4{fill:#E8A990;}
	.st5{fill:#0069A2;}
	.st6{fill:#034970;}
	.st7{fill:#83C3A3;}
	.st8{fill:#0A0C0F;}
</style>
<g>
	<g>
		<path class="st0" d="M132.9,169.5c0,0-29.2-39.3-28.4-95.4c0,0,16.5,3.9,31.1,0c28.5-7.7,56.6-64.3,106.1-66s59.1,21.4,59.1,21.4
			s18.2-10.8,45.4-7.1c40.7,5.5,76.4,67.5,40.1,152.6"/>
		<path class="st1" d="M341.2,135.7c-17.7-16.3-37.3-44.5-45.2-56.3c-1.8-2.7-5.7-3-7.9-0.6c-39.8,43.5-91.5,58-114.6,62.5
			c-7,1.4-12.1,7.5-12.1,14.7v46.6c0,52.2,42.4,94.6,94.6,94.6s94.6-42.4,94.6-94.6v-45.2C350.6,149.3,347.3,141.3,341.2,135.7
			L341.2,135.7z"/>
		<path class="st2" d="M256.1,279.3c-52.2,0-94.6-42.4-94.6-94.6v18c0,52.2,42.4,94.6,94.6,94.6s94.6-42.4,94.6-94.6v-18
			C350.6,237,308.3,279.3,256.1,279.3z"/>
		<path class="st3" d="M161.5,202.7v-33.4c-4.2-2.3-9-3.6-14.2-3.6c-16.3,0-29.5,13.2-29.5,29.5s13.2,29.5,29.5,29.5
			c5.8,0,11.2-1.7,15.8-4.6C162,214.4,161.5,208.7,161.5,202.7L161.5,202.7z"/>
		<path class="st3" d="M350.6,202.7v-33.4c4.2-2.3,9-3.6,14.2-3.6c16.3,0,29.5,13.2,29.5,29.5s-13.2,29.5-29.5,29.5
			c-5.8,0-11.2-1.7-15.8-4.6C350.1,214.4,350.6,208.7,350.6,202.7L350.6,202.7z"/>
		<path class="st4" d="M147.3,206.6c-13.1,0-24.2-8.6-28.1-20.5c-0.9,2.8-1.4,5.9-1.4,9c0,16.3,13.2,29.5,29.5,29.5
			c5.8,0,11.2-1.7,15.8-4.6c-1-5.5-1.6-11.2-1.6-17.1C157.3,205.3,152.4,206.6,147.3,206.6L147.3,206.6z"/>
		<path class="st4" d="M364.8,206.6c-5.1,0-10-1.3-14.2-3.6c0,5.8-0.6,11.5-1.6,17.1c4.6,2.9,10,4.6,15.8,4.6
			c16.3,0,29.5-13.2,29.5-29.5c0-3.1-0.5-6.2-1.4-9C389.1,198,378,206.6,364.8,206.6L364.8,206.6z"/>
		<path class="st5" d="M300.4,286.3c-13.2,7-28.3,11-44.3,11s-31.1-4-44.3-11c-63.8,13.4-111.8,70-111.8,137.8V504h312.2v-79.9
			C412.1,356.3,364.2,299.7,300.4,286.3L300.4,286.3z"/>
		<path class="st6" d="M100,486h312.2v18H100V486z"/>
		<path class="st3" d="M256.1,297.3c-16.1,0-31.3-4-44.6-11.2c-0.1,1.2-0.2,2.3-0.2,3.5c0,24.7,20,44.8,44.8,44.8s44.8-20,44.8-44.8
			c0-1.2-0.1-2.4-0.2-3.5C287.4,293.3,272.2,297.3,256.1,297.3z"/>
		<path class="st1" d="M340.4,458.4h71.7V504h-71.7V458.4z"/>
		<path class="st1" d="M171.7,504H100v-45.6h71.7V504z"/>
		<path class="st2" d="M340.4,486h71.7v18h-71.7V486z"/>
		<path class="st2" d="M171.7,504H100v-18h71.7V504z"/>
		<g>
			<ellipse class="st7" cx="54.9" cy="169.2" rx="18.1" ry="18.1"/>
			<ellipse class="st7" cx="457.2" cy="147.5" rx="18.1" ry="18.1"/>
		</g>
	</g>
	<g>
		<path class="st8" d="M213.2,497H179v-38.2v-43c0-4.2-3.4-7.5-7.5-7.5s-7.5,3.4-7.5,7.5v35.4h-56.8v-26.8
			c0-30.8,10.8-60.9,30.3-84.7c17.3-21,40.7-36.3,66.6-43.7c3.1,25.9,25.2,46.1,52,46.1c26.8,0,48.9-20.2,52-46.1
			c21,6,40.3,17.1,56.2,32.5c1.5,1.4,3.3,2.1,5.2,2.1c2,0,3.9-0.8,5.4-2.3c2.9-3,2.8-7.7-0.2-10.6c-16-15.5-35.2-27.1-56.1-34.1
			c17.1-13.2,29.9-31.7,35.9-53c3.4,1,7,1.5,10.5,1.5c20.4,0,37-16.6,37-37c0-8-2.6-15.4-6.9-21.5c6.8-17,11.2-33.8,13-49.9
			c46.2-12.4,57-28.1,57-40c0-14-14.3-25.9-42.5-35.5c-3.9-1.3-8.2,0.8-9.5,4.7c-1.3,3.9,0.8,8.2,4.7,9.5
			C441.6,70.6,450,79,450,83.8c0,4.9-9.4,14.8-41,24c0.2-21.4-4.4-41.1-13.8-57.7C383.8,30,366.4,17,347.3,14.5
			c-20-2.7-35.7,1.8-43.9,5.1c-2.1-2.5-5.2-5.4-9.5-8.2c-12.7-8.3-30.4-12.1-52.5-11.3C223,0.7,205.8,8,187.1,22.9
			c-3.2,2.6-3.8,7.3-1.2,10.6c2.6,3.2,7.3,3.8,10.6,1.2c16-12.8,30.5-19.1,45.5-19.5c41.4-1.4,51.4,15.7,52,16.9
			c0.8,2.1,2.4,3.5,4.4,4.3c2.1,0.8,4.4,0.4,6.3-0.7c0.2-0.1,16.6-9.4,40.7-6.2c14.4,1.9,27.8,12.2,36.9,28.2
			c4.9,8.6,12.8,26.9,11.8,54.2c-6.3,1.5-13.3,2.9-21,4.3c-4.1,0.7-6.8,4.6-6.1,8.7c0.6,3.6,3.8,6.2,7.4,6.2c0.4,0,0.9,0,1.3-0.1
			c6-1.1,11.7-2.2,17-3.3c-1.6,10.7-4.5,22.5-9.3,35.3c-5.4-3.1-11.6-4.8-18.2-4.8c-2.2,0-4.5,0.2-6.7,0.6v-1.2
			c0-10.5-4.3-20.5-11.9-27.4c-17.2-15.8-36.6-43.8-44.2-55c-2.2-3.2-5.6-5.2-9.4-5.5c-3.9-0.3-7.6,1.2-10.2,4.1
			c-39,42.6-90.4,56.4-110.7,60.3c-10.5,2.1-18.2,11.4-18.2,22.1v2.7c-2.2-0.4-4.4-0.6-6.7-0.6c-4,0-7.9,0.7-11.6,1.9
			c-3.7-6-9.8-17.2-15-32.2c5.7,1.2,11.8,2.4,18.4,3.5c0.4,0.1,0.9,0.1,1.3,0.1c3.6,0,6.8-2.6,7.4-6.3c0.7-4.1-2.1-8-6.1-8.7
			c-9.6-1.6-18.1-3.4-25.7-5.2c-2-8.8-3.5-18.4-3.9-28.7c6.8,0.7,16.4,0.9,25.4-1.5c13.1-3.5,25.4-15.3,37.3-26.6
			c3-2.9,3.1-7.6,0.3-10.6c-2.9-3-7.6-3.1-10.6-0.3c-10.5,10-21.4,20.4-30.9,23c-12.5,3.4-27.3,0-27.4-0.1c-2.2-0.5-4.6,0-6.4,1.4
			c-1.8,1.4-2.9,3.5-2.9,5.8c-0.2,11.9,0.9,23,2.8,33.2C70.7,97.9,62,88.5,62,83.8c0-3.9,5.5-9.1,14.6-13.9
			C87.7,64,104.5,58.6,125,54.3c4.1-0.9,6.7-4.9,5.8-8.9c-0.9-4.1-4.9-6.7-8.9-5.8C72.1,50.1,46.9,65,46.9,83.8
			c0,11.9,10.7,27.5,56.5,39.8c5.8,20.5,14.1,35.8,19,43.8c-7.6,6.8-12.4,16.7-12.4,27.6c0,20.4,16.6,37,37,37
			c3.6,0,7.1-0.5,10.5-1.5c6,21.3,18.8,39.8,35.9,53c-26.3,8.8-49.9,25-67.7,46.6c-21.7,26.5-33.7,59.9-33.7,94.2v80
			c0,4.2,3.4,7.5,7.5,7.5h113.6c4.2,0,7.5-3.4,7.5-7.5C220.8,500.3,217.4,497,213.2,497L213.2,497z M256,327.1
			c-17.6,0-32.5-12.3-36.3-28.8c11.3,4.3,23.5,6.7,36.3,6.7s25-2.4,36.3-6.7C288.5,314.8,273.7,327.1,256,327.1L256,327.1z
			 M365,173.1c12.1,0,22,9.9,22,22s-9.9,22-22,22c-2.6,0-5.1-0.5-7.5-1.3c0.5-4.3,0.8-8.6,0.8-13.1v-28.5
			C360.5,173.4,362.7,173.1,365,173.1z M147,217c-12.1,0-22-9.9-22-22s9.9-22,22-22c2.3,0,4.5,0.4,6.7,1v28.5
			c0,4.4,0.3,8.8,0.8,13.1C152.1,216.6,149.6,217,147,217L147,217z M168.7,202.6V156c0-3.6,2.5-6.7,6-7.4
			c21.4-4.2,75-18.6,116.7-62.7c8.8,13,27.6,39.3,44.7,55.1c4.5,4.1,7.1,10.1,7.1,16.4v45.2c0,48.1-39.1,87.3-87.3,87.3
			C207.9,289.9,168.7,250.8,168.7,202.6L168.7,202.6z M164,497h-56.8v-30.7H164V497z"/>
		<path class="st8" d="M382.1,336.7c-3.4,2.4-4.2,7.1-1.8,10.5c16.1,22.6,24.6,49.3,24.6,77.2v26.8H348v-35.4c0-4.2-3.4-7.5-7.5-7.5
			c-4.2,0-7.5,3.4-7.5,7.5v43V497h-89.7c-4.2,0-7.5,3.4-7.5,7.5c0,4.2,3.4,7.5,7.5,7.5h169.1c4.2,0,7.5-3.4,7.5-7.5v-80
			c0-31-9.5-60.7-27.4-85.9C390.1,335.1,385.4,334.3,382.1,336.7L382.1,336.7z M404.9,497h-56.8v-30.7h56.8L404.9,497L404.9,497z"/>
		<path class="st8" d="M217.1,228.2c-2.6,3.2-2.1,8,1.1,10.6c3.2,2.6,8,2.1,10.6-1.1c1-1.2,3.8-3.7,6.1-3.8c0.6,0.3,1.7,1.4,2.5,2.2
			c3.5,3.4,8.9,8.4,18.6,8.4c9.7,0,15-5.1,18.6-8.4c0.8-0.7,1.9-1.8,2.5-2.2c2.3,0.2,5.1,2.6,6.1,3.8c2.6,3.2,7.3,3.7,10.5,1.1
			c3.2-2.6,3.8-7.3,1.2-10.6c-0.8-1-7.9-9.4-18-9.4c-6,0-9.8,3.6-12.6,6.3c-3,2.8-4.7,4.3-8.2,4.3c-3.5,0-5.2-1.5-8.2-4.3
			c-2.8-2.7-6.7-6.3-12.6-6.3C224.9,218.8,217.9,227.3,217.1,228.2L217.1,228.2z"/>
		<path class="st8" d="M195.5,194.3c1.5,1.5,3.4,2.2,5.3,2.2s3.9-0.7,5.3-2.2l4-4l4,4c1.5,1.5,3.4,2.2,5.3,2.2s3.9-0.7,5.3-2.2
			c2.9-2.9,2.9-7.7,0-10.6l-4-4l4-4c2.9-2.9,2.9-7.7,0-10.6c-2.9-2.9-7.7-2.9-10.6,0l-4,4l-4-4c-2.9-2.9-7.7-2.9-10.6,0
			c-2.9,2.9-2.9,7.7,0,10.6l4,4l-4,4C192.6,186.6,192.6,191.3,195.5,194.3z"/>
		<path class="st8" d="M287.3,194.3c1.5,1.5,3.4,2.2,5.3,2.2s3.9-0.7,5.3-2.2l4-4l4,4c1.5,1.5,3.4,2.2,5.3,2.2
			c1.9,0,3.9-0.7,5.3-2.2c2.9-2.9,2.9-7.7,0-10.6l-4-4l4-4c2.9-2.9,2.9-7.7,0-10.6c-2.9-2.9-7.7-2.9-10.6,0l-4,4l-4-4
			c-2.9-2.9-7.7-2.9-10.6,0c-2.9,2.9-2.9,7.7,0,10.6l4,4l-4,4C284.3,186.6,284.3,191.3,287.3,194.3z"/>
		<path class="st8" d="M54.4,143.4c-14.1,0-25.7,11.5-25.7,25.7c0,14.1,11.5,25.7,25.7,25.7s25.7-11.5,25.7-25.7
			S68.6,143.4,54.4,143.4z M54.4,179.7c-5.9,0-10.6-4.8-10.6-10.6c0-5.9,4.8-10.6,10.6-10.6s10.6,4.8,10.6,10.6
			C65.1,174.9,60.3,179.7,54.4,179.7z"/>
		<path class="st8" d="M457.6,121.7c-14.1,0-25.7,11.5-25.7,25.7c0,14.1,11.5,25.7,25.7,25.7s25.7-11.5,25.7-25.7
			C483.2,133.3,471.7,121.7,457.6,121.7z M457.6,158c-5.9,0-10.6-4.8-10.6-10.6s4.8-10.6,10.6-10.6c5.9,0,10.6,4.8,10.6,10.6
			C468.2,153.3,463.4,158,457.6,158z"/>
	</g>
</g>
</svg>
