<?xml version="1.0" encoding="utf-8"?>
<!-- Generator: Adobe Illustrator 25.2.1, SVG Export Plug-In . SVG Version: 6.00 Build 0)  -->
<svg version="1.1" id="Layer_1" xmlns="http://www.w3.org/2000/svg" xmlns:xlink="http://www.w3.org/1999/xlink" x="0px" y="0px"
	 viewBox="0 0 512 512" style="enable-background:new 0 0 512 512;" xml:space="preserve">
<style type="text/css">
	.st0{fill:#AFB9D2;}
	.st1{fill:#D5DCED;}
	.st2{fill:#83C3A3;}
	.st3{fill:#E4EAF8;}
	.st4{fill:#0069A2;}
</style>
<path class="st0" d="M503.7,393.1H8.3c0,18.1-0.1,28.7-0.1,29.6c0,28.7,23.2,52.6,52.7,52.6h390.2c29.4,0,52.7-24,52.7-52.6
	C503.8,421.8,503.7,411.2,503.7,393.1z"/>
<path class="st1" d="M503.3,385.4L462.8,74.8c-2.9-21.9-21.5-38.2-43.5-38.2H92.7c-22,0-40.7,16.3-43.5,38.2L8.7,385.4
	c-3.8,29.1,18.8,54.8,48.1,54.8h398.3C484.5,440.3,507.1,414.5,503.3,385.4z"/>
<path class="st2" d="M419.3,64.1c8.8,0,16.3,6.5,17.4,15.2l40.5,309.6c0.8,6.4-1.1,12.6-5.3,17.5s-10.2,7.5-16.7,7.5H56.8
	c-6.5,0-12.4-2.7-16.7-7.5c-4.3-4.9-6.2-11.1-5.3-17.5L75.3,79.3c1.1-8.7,8.6-15.2,17.4-15.2H419.3"/>
<path class="st3" d="M256,71.7c-53.3,0-96.5,43.2-96.5,96.5h193C352.5,114.9,309.3,71.7,256,71.7z"/>
<path class="st1" d="M256,115.6c-29.1,0-52.6,23.6-52.6,52.6h105.3C308.6,139.2,285.1,115.6,256,115.6z"/>
<path class="st4" d="M243.6,180.7c-6.9-6.9-6.9-18,0-24.8s56.3-31.5,56.3-31.5s-24.6,49.4-31.5,56.3
	C261.6,187.5,250.4,187.5,243.6,180.7z"/>
<path d="M387.6,432h-17.5c-4.5,0-8.2,3.7-8.2,8.2s3.7,8.2,8.2,8.2h17.5c4.5,0,8.2-3.7,8.2-8.2S392.2,432,387.6,432z"/>
<path d="M511.9,393.1c0-2.9-0.1-5.9-0.5-8.7L471,73.8c-3.4-25.9-25.6-45.4-51.7-45.4H92.7c-26.1,0-48.3,19.5-51.7,45.4L0.5,384.4
	c-0.4,2.9-0.5,4.7-0.5,8.7L0,422.7c0,16.2,6.3,31.5,17.8,43c11.5,11.5,26.8,17.8,43.1,17.8h390.2c16.3,0,31.6-6.3,43.1-17.8
	c11.5-11.5,17.8-26.8,17.8-43L511.9,393.1z M422.7,448.5h32.5c14.7,0,28.7-5.7,39.3-15.8c-1.8,8-5.9,15.4-11.9,21.4
	c-8.4,8.4-19.5,13-31.4,13H60.9c-11.9,0-23-4.6-31.4-13c-6-6-10-13.4-11.9-21.4c10.5,10.1,24.6,15.8,39.3,15.8H335
	c4.5,0,8.2-3.7,8.2-8.2s-3.7-8.2-8.2-8.2H56.8c-11.6,0-22.6-5-30.3-13.7s-11.2-20.3-9.7-31.8L57.4,75.9c2.3-17.7,17.5-31,35.3-31
	h326.6c17.8,0,33,13.3,35.3,31l40.5,310.6c1.5,11.5-2,23.1-9.7,31.8c-7.7,8.7-18.7,13.7-30.3,13.7h-32.5c-4.5,0-8.2,3.7-8.2,8.2
	S418.2,448.5,422.7,448.5z"/>
<path d="M176.5,71.7c0-4.5-3.7-8.2-8.2-8.2H98.1c-4.5,0-8.2,3.7-8.2,8.2s3.7,8.2,8.2,8.2h70.2C172.8,80,176.5,76.3,176.5,71.7z"/>
<path d="M256,63.5c-57.8,0-104.7,47-104.7,104.7c0,4.5,3.7,8.2,8.2,8.2h72.1c1.2,3.7,3.3,7.1,6.2,10c0,0,0,0,0,0
	c4.9,4.9,11.3,7.5,18.2,7.5c6.9,0,13.4-2.7,18.2-7.5c1.7-1.7,4.2-5.4,7.1-10h71.2c4.5,0,8.2-3.7,8.2-8.2
	C360.7,110.5,313.8,63.5,256,63.5z M256,177.6c-2.5,0-4.8-1-6.6-2.7l0,0c-1.8-1.8-2.7-4.1-2.7-6.6s1-4.8,2.7-6.6
	c2.5-2.5,15.9-10.1,31.5-18.3c-8.2,15.6-15.8,29-18.3,31.5C260.8,176.6,258.5,177.6,256,177.6z M290.7,160
	c6.8-12.5,13.5-25.9,16.6-32c1.6-3.2,1-7-1.5-9.5c-2.5-2.5-6.3-3.1-9.5-1.5c-11.9,5.9-51.2,25.8-58.4,33c-2.9,2.9-5,6.3-6.2,10
	h-63.5c0.9-10.1,3.6-19.7,7.7-28.6l7.7,4.5c1.3,0.7,2.7,1.1,4.1,1.1c2.8,0,5.6-1.5,7.1-4.1c2.3-3.9,0.9-9-3-11.2l-7.7-4.4
	c5.8-8.1,12.8-15.2,20.9-20.9l4.4,7.7c1.5,2.6,4.3,4.1,7.1,4.1c1.4,0,2.8-0.4,4.1-1.1c3.9-2.3,5.3-7.3,3-11.2l-4.5-7.7
	c8.8-4.1,18.5-6.7,28.6-7.7v8.9c0,4.5,3.7,8.2,8.2,8.2c4.5,0,8.2-3.7,8.2-8.2v-8.9c10.1,0.9,19.7,3.6,28.6,7.7l-4.5,7.7
	c-2.3,3.9-0.9,9,3,11.2c1.3,0.7,2.7,1.1,4.1,1.1c2.8,0,5.6-1.5,7.1-4.1l4.4-7.7c8.1,5.8,15.2,12.8,20.9,20.9l-7.7,4.4
	c-3.9,2.3-5.3,7.3-3,11.2c1.5,2.6,4.3,4.1,7.1,4.1c1.4,0,2.8-0.4,4.1-1.1l7.7-4.5c4.1,8.8,6.7,18.5,7.7,28.6L290.7,160L290.7,160
	L290.7,160z"/>
<path d="M422.2,71.7c0-4.5-3.7-8.2-8.2-8.2h-70.2c-4.5,0-8.2,3.7-8.2,8.2s3.7,8.2,8.2,8.2h70.2C418.5,80,422.2,76.3,422.2,71.7z"/>
</svg>
