<?xml version="1.0" encoding="utf-8"?>
<!-- Generator: Adobe Illustrator 25.2.1, SVG Export Plug-In . SVG Version: 6.00 Build 0)  -->
<svg version="1.1" id="Layer_1" xmlns="http://www.w3.org/2000/svg" xmlns:xlink="http://www.w3.org/1999/xlink" x="0px" y="0px"
	 viewBox="0 0 512 512" style="enable-background:new 0 0 512 512;" xml:space="preserve">
<style type="text/css">
	.st0{fill:#232629;}
</style>
<g>
	<path class="st0" d="M237.8,351.7c0-8.3-5.8-15.2-13.9-17.2c-31.6-7.9-38.2-40.5-39.4-49.4l8.1,73.1c1,8.5,0.4,17.1-1.6,25.4
		l-14.6,58.2h61.4V351.7z"/>
	<polygon class="st0" points="184.2,282.7 184.2,282.7 184.2,282.7 	"/>
</g>
<path class="st0" d="M149.8,454.1c0-6.8,0-12.3,0-12.3H83.5c-17.1,0-31,13.9-31,31c0,17.1,13.9,31,31,31h146V486l-65.8-14.6
	C155.6,469.6,149.8,462.4,149.8,454.1z"/>
<path class="st0" d="M285.3,96.8c-29.7,17.6-63.4,23.2-82.4,25v17.1c0,25.4,16.9,48.4,41.7,53.9c10.4,2.3,20.3,1.3,29.1-1.8
	c-19.2-6.8-33.4-24.3-35.2-45.3c-0.2-2.7,1.6-5.2,4.2-6.2c8.1-2.9,25.6-9.5,35.7-16.2c7.1,7,17.6,15,30.7,19.1V118
	C294.3,110.3,285.3,96.8,285.3,96.8z"/>
<path class="st0" d="M279.9,47.9c-7.5-2.7-15.5-4.2-23.9-4.2c-39.1,0-70.8,31.7-70.8,70.8v8.1c0,0,19.3,0.1,44.3-5.6
	C230.3,85,251.1,58,279.9,47.9z"/>
<polygon class="st0" points="202.9,441.8 202.9,480.1 229.5,486 229.5,441.8 "/>
<path d="M484.3,390.4c-6.4-6.4-15-10-24.1-10c0,0,0,0,0,0h-0.8c-8.7,0-16.4,4.3-21.1,10.8l-50.7-50.7l-10.3-77.3
	c-4.5-34.1-33.9-59.8-68.3-59.8c-9.5,0-17.1,7.7-17.1,17.1v17.7c0,19.8-16.1,35.9-35.9,35.9c-19.8,0-35.9-16.1-35.9-35.9v-17.7
	c0-9.5-7.7-17.1-17.2-17.1c-34.4,0-63.7,25.7-68.3,59.8l-10.3,77.3l-50.7,50.6c-0.8-1.1-1.7-2.2-2.7-3.2c-4.9-4.9-11.4-7.6-18.4-7.6
	c0,0,0,0,0,0c-19.2,0-34.8,15.6-34.8,34.8c0,18.9,15.1,34.3,33.8,34.8c-4.6,6.4-7.3,14.2-7.3,22.7c0,21.6,17.6,39.3,39.3,39.3h345
	c21.6,0,39.3-17.6,39.3-39.3c0-8.5-2.7-16.3-7.3-22.7c18.7-0.5,33.8-16,33.8-34.9v-0.7C494.3,405.3,490.8,396.8,484.3,390.4z
	 M333.2,348c2.4,11.9,8.2,22.8,16.8,31.4l54.1,54.1h-62l-13-51.9c-1.8-7.4-2.3-14.9-1.4-22.5l2.9-24.3L333.2,348z M202.9,220.1
	c0.3,0,0.6,0.2,0.6,0.6v17.7c0,29,23.6,52.5,52.5,52.5s52.5-23.6,52.5-52.5v-17.7c0-0.3,0.2-0.6,0.6-0.6c6.2,0,12.3,1.1,17.9,3.2
	l-15.8,133.9c-1.1,9.5-0.5,19.1,1.8,28.4l12,47.9H187l12-47.9c2.3-9.3,2.9-18.9,1.8-28.4L185,223.2
	C190.6,221.2,196.7,220.1,202.9,220.1z M221.2,475.7l-55.7-12.4c-4.3-1-7.4-4.7-7.4-9.2v-4.1h63V475.7z M181.5,334.8l2.9,24.3
	c0.9,7.5,0.4,15.1-1.4,22.5l-13,51.9h-62l54.1-54.1c8.6-8.6,14.4-19.4,16.8-31.4L181.5,334.8z M34.3,415.2
	c0-10.1,8.2-18.2,18.2-18.2c2.5,0,4.9,1,6.6,2.8c1.8,1.8,2.8,4.1,2.8,6.6c0,3.4,2,6.4,5.1,7.7c3.1,1.3,6.7,0.6,9-1.8l61.9-61.9
	c1.3-1.3,2.1-3,2.4-4.8l10.7-80.1c1.8-13.4,8.6-25,18.4-33.2l5.8,49.3l-12.6,63.2c-1.7,8.7-6,16.6-12.2,22.9l-65.8,65.8h-1h-31
	C42.5,433.5,34.3,425.3,34.3,415.2z M60.8,472.7c0-12.5,10.2-22.7,22.7-22.7h58.1v4.1c0,12.3,8.4,22.7,20.4,25.4l59.3,13.2v2.7H83.5
	C71,495.4,60.8,485.2,60.8,472.7z M428.5,495.4H237.8v-45.3h190.8c12.5,0,22.7,10.2,22.7,22.7C451.2,485.2,441,495.4,428.5,495.4z
	 M477.7,415.1c0,10.1-8.2,18.4-18.2,18.4h-32l-65.8-65.8c-6.3-6.3-10.5-14.2-12.2-22.9l-12.6-63.2l5.8-49.3
	c9.8,8.2,16.6,19.8,18.4,33.2l10.7,80.1c0.2,1.8,1.1,3.5,2.4,4.8l61.9,61.9c2.4,2.4,5.9,3.1,9,1.8c3.1-1.3,5.1-4.3,5.1-7.7
	c0-5.2,4.2-9.4,9.4-9.4h0.8c0,0,0,0,0,0c4.7,0,9,1.8,12.3,5.1c3.3,3.3,5.1,7.7,5.1,12.3L477.7,415.1L477.7,415.1z"/>
<path d="M185.2,130.9c0.5,0,4,0,9.4-0.4V141c0,33.8,27.5,61.4,61.4,61.4s61.4-27.5,61.4-61.4v-10.3c3,0.6,6.1,0.9,9.4,0.9
	c4.6,0,8.3-3.7,8.3-8.3v-8.8c0-31.5-18.5-58.7-45.2-71.4c0.6-2.7,1-5.4,1-8.2C290.8,15.6,275.2,0,256,0s-34.8,15.6-34.8,34.8
	c0,2.8,0.3,5.5,1,8.2c-26.7,12.7-45.2,39.9-45.2,71.4v8.1C176.9,127.1,180.6,130.8,185.2,130.9z M300.8,141
	c0,24.7-20.1,44.8-44.8,44.8s-44.8-20.1-44.8-44.8v-12.2c18.6-2.6,44.6-8.3,69.2-21.4c4.3,4.9,11.2,11.8,20.4,17V141z M237.8,34.8
	c0-10.1,8.2-18.2,18.2-18.2s18.2,8.2,18.2,18.2c0,0.9-0.1,1.8-0.2,2.7c-5.8-1.4-11.8-2.1-18-2.1c-6.2,0-12.2,0.7-18,2.1
	C237.8,36.6,237.8,35.7,237.8,34.8z M256,52c34.3,0,62.2,27.7,62.5,61.9c-17.2-4.5-28.9-21.6-29-21.8c-2.4-3.7-7.3-4.8-11.1-2.5
	c-31.6,18.7-68.6,23.2-84.8,24.3C193.8,79.7,221.7,52,256,52z"/>
</svg>
