<svg id="Layer_1" data-name="Layer 1" xmlns="http://www.w3.org/2000/svg" viewBox="0 0 283.17 235.44" style="fill: #83C3A3;">
<path d="M141.52,28.49c1.89-1.62,3.67-3.15,5.45-4.66a71.84,71.84,0,0,1,11.2-7.75c2.59-1.45,5.12-3,7.77-4.35a107,107,0,0,1,12.23-5.44c3.8-1.35,7.62-2.62,11.49-3.76A45.56,45.56,0,0,1,199.13.7c1.79-.13,3.58-.35,5.36-.5A51.82,51.82,0,0,1,215.9.46a62.84,62.84,0,0,1,19.43,5.66,87.12,87.12,0,0,1,10.27,5.49c3,2,5.91,4,8.8,6a39.53,39.53,0,0,1,6.42,6c2,2.24,4,4.5,5.88,6.83,1.25,1.53,2.32,3.2,3.47,4.81a55.09,55.09,0,0,1,4.77,7.9,83.26,83.26,0,0,1,4.84,12,78,78,0,0,1,2.42,9.12,51.55,51.55,0,0,1,.95,11.15c-.12,3.56-.1,7.11-.5,10.65a104.26,104.26,0,0,1-3.36,17.8,71,71,0,0,1-4.49,11.69c-1.48,3-2.9,6-4.35,9a72.57,72.57,0,0,1-9.77,14.58c-4.27,5.17-8.7,10.21-13.47,14.94q-5.42,5.37-11,10.56-7.81,7.26-16.11,14c-4.94,4-9.81,8-14.74,12-2.19,1.78-4.53,3.37-6.69,5.19-5.4,4.53-11.19,8.54-16.95,12.58-3.57,2.5-7.23,4.87-10.83,7.33-2.5,1.73-4.94,3.55-7.44,5.28q-4.66,3.21-9.37,6.35c-3,2-6.06,4-9.08,6-.69.46-1.35,1-2,1.5a2.07,2.07,0,0,1-2.81,0c-3.29-2.64-6.81-5-10.34-7.25s-7.12-4.78-10.68-7.16c-4.51-3-9-6-13.51-9.07-3.09-2.11-6.06-4.39-9.16-6.48-5.11-3.45-9.85-7.39-14.66-11.22-6.4-5.09-12.72-10.27-19.11-15.37-4.9-3.91-9.62-8-14.24-12.27-4.81-4.41-9.47-9-14.12-13.55-1.91-1.87-3.6-3.95-5.4-5.93-2.94-3.23-5.81-6.5-8.5-9.95a80.33,80.33,0,0,1-9.64-15.83c-.89-1.93-1.62-3.93-2.46-5.88s-1.74-3.8-2.55-5.72A65.79,65.79,0,0,1,1.91,95.7,90.09,90.09,0,0,1,.32,84.05c-.25-4.31-.41-8.64-.26-13A53.63,53.63,0,0,1,2.69,57.2,102.24,102.24,0,0,1,7,45.67a74.18,74.18,0,0,1,5.8-10.22A69.17,69.17,0,0,1,23.37,23c1-1,1.95-2,3-2.89,1.93-1.63,3.87-3.26,5.91-4.74,2.64-1.91,5.3-3.83,8.11-5.47a83.42,83.42,0,0,1,15.48-7A66.46,66.46,0,0,1,65.74.7,52.93,52.93,0,0,1,81.08.44c2,.25,4,.24,5.9.62,3,.59,5.91,1.39,8.85,2.16a102.85,102.85,0,0,1,14.78,5.31,124.07,124.07,0,0,1,11.24,5.77,95.42,95.42,0,0,1,9.64,5.92,114,114,0,0,1,9.19,7.51Zm67,137.83,1.9-1.66,10.06-8.7c1.8-1.56,3.65-3.05,5.38-4.69q5.35-5.06,10.6-10.24t10.55-10.59a28.75,28.75,0,0,0,2.71-3.31c1-1.33,1.82-2.74,2.78-4.08a51.13,51.13,0,0,0,4.18-6.45c.5-1,1.07-1.92,1.56-2.9,1.54-3.08,3.14-6.13,4.57-9.25A38.83,38.83,0,0,0,265.69,94c.55-3.65.93-7.34,1.26-11a37,37,0,0,0,.3-8.22c-.19-1.45-.25-2.92-.47-4.36s-.64-3.08-.88-4.64a37.55,37.55,0,0,0-2.39-9c-1.2-2.84-2.59-5.57-4-8.33a55,55,0,0,0-6.74-10.27c-1.76-2.15-3.81-4.06-5.75-6A27.83,27.83,0,0,0,244.81,30c-1.13-.93-2.27-1.84-3.47-2.67s-2.56-1.57-3.83-2.37a37.52,37.52,0,0,0-6.91-3.6c-2.81-1.05-5.68-1.93-8.55-2.79-2-.6-4.12-1-6.15-1.59a27.31,27.31,0,0,0-7.73-.77,48.4,48.4,0,0,0-7.1.63c-2.72.39-5.41,1-8.11,1.43a41.55,41.55,0,0,0-9.48,3.08c-1.27.56-2.52,1.17-3.79,1.74-4.05,1.82-8.05,3.71-11.94,5.85a105.56,105.56,0,0,0-15,9.78l-1,.8,1.52,2a50.94,50.94,0,0,1,7.18,13.55,55.89,55.89,0,0,1,2.87,10.71,45.92,45.92,0,0,1,.27,11.83,40,40,0,0,1-6.45,17.59c-1.81,2.84-3.73,5.61-5.6,8.42-.45.68-.43.8.11,1.44.72.83,1.45,1.65,2.16,2.49,2.5,3,4.92,6,7.5,8.91,3.17,3.56,6.47,7,9.71,10.49,2.22,2.39,4.41,4.8,6.64,7.18,1.13,1.2,2.34,2.33,3.46,3.53,2.23,2.38,4.4,4.82,6.66,7.18,3.83,4,7.72,7.92,11.57,11.89,2.47,2.56,4.91,5.14,7.37,7.71Zm-134-.17c.27-.24.5-.42.7-.62,1.73-1.79,3.48-3.57,5.18-5.39s3.5-3.85,5.3-5.73c4.43-4.63,9.16-9,13.42-13.78,2.45-2.76,5.15-5.32,7.7-8,1.59-1.67,3.12-3.4,4.69-5.09,3.69-4,7.4-7.93,11.06-11.93,3.27-3.56,6-7.61,9.35-11.08,0,0,0-.13.08-.25l-.54-.78a126,126,0,0,1-8-12.58,37.94,37.94,0,0,1-4.25-17.23,52.21,52.21,0,0,1,2.59-16.21,50.8,50.8,0,0,1,8.91-17.17c.2-.25.38-.52.6-.83-1.94-1.48-3.78-3-5.73-4.34a109.39,109.39,0,0,0-12.47-7.4c-3.2-1.63-6.46-3.14-9.72-4.64-2.19-1-4.43-1.92-6.64-2.89a38.48,38.48,0,0,0-8.56-2.33,86.67,86.67,0,0,0-12.83-1.69c-.77,0-1.54.17-2.3.12A25.52,25.52,0,0,0,65,17.55c-2.34.6-4.64,1.32-6.95,2-1.44.44-2.86.9-4.28,1.4-4.53,1.61-8.5,4.27-12.56,6.75a36.93,36.93,0,0,0-6.6,5.77,47.49,47.49,0,0,0-4.46,5.14c-1.61,2.14-3.08,4.36-4.52,6.62-.19.3-.31.66-.48,1-.74,1.39-1.37,2.85-2.24,4.15a19.42,19.42,0,0,0-2.2,4.54c-1,3-2.21,6-2.6,9.29-.28,2.31-.91,4.59-1.37,6.88a8,8,0,0,0-.09,1.2c0,.52,0,1-.06,1.54-.12,1.94-.3,3.87-.33,5.81,0,1.61.1,3.22.21,4.83a94.22,94.22,0,0,0,2.31,15.3,39,39,0,0,0,3.54,9.09c2,3.8,3.76,7.71,6.27,11.21a107,107,0,0,0,9.36,12.05c2.17,2.28,4.32,4.59,6.55,6.82,2.54,2.53,5.18,5,7.74,7.49,3.14,3.09,6.37,6.07,9.73,8.91s6.44,5.54,9.67,8.31C72.6,164.48,73.58,165.3,74.6,166.15Zm67,50.86c.21-.13.41-.23.58-.36,2.38-1.76,4.74-3.56,7.16-5.28,3.07-2.19,6.21-4.28,9.28-6.48q5.58-4,11.08-8.12,7.31-5.46,14.57-11c4.25-3.25,8.47-6.54,12.7-9.82.22-.17.41-.38.66-.61-.21-.24-.35-.45-.52-.63-1.13-1.15-2.29-2.28-3.4-3.45-3.15-3.32-6.26-6.68-9.42-10-5.66-6-11.37-11.86-17-17.82-3.3-3.49-6.48-7.09-9.79-10.56-5.25-5.49-10.5-11-15.18-16.95a3.64,3.64,0,0,0-.55-.48c-18.29,20.41-37.32,40-56.16,59.88.24.23.41.42.6.57,1.93,1.52,3.84,3.07,5.79,4.55q9,6.75,17.93,13.47c.71.52,1.5.94,2.16,1.51,2.28,2,5.06,3.37,7.12,5.64a1.18,1.18,0,0,0,.18.13c1.53,1.08,3,2.17,4.58,3.23,2.54,1.75,5.12,3.42,7.63,5.21,2.3,1.63,4.51,3.38,6.78,5.06C139.37,215.5,140.46,216.23,141.55,217ZM141.5,49.24a20.46,20.46,0,0,0-3.17,6A66.92,66.92,0,0,0,136,66.66a28.67,28.67,0,0,0,.53,9.06,55.82,55.82,0,0,0,2,7.41c.8,2.31,1.92,4.5,2.91,6.74,0,0,.05,0,.15.1.12-.21.25-.41.35-.63.34-.81.62-1.65,1-2.43a27.94,27.94,0,0,0,2.1-5.41,52.88,52.88,0,0,0,1.8-7.68,24.73,24.73,0,0,0,.3-5.89c-.16-1.31-.37-2.61-.48-3.92a21.7,21.7,0,0,0-.78-4.53c-.34-1.12-.66-2.25-.91-3.4A19.82,19.82,0,0,0,142,49.67,3.86,3.86,0,0,0,141.5,49.24Z"/>
</svg>